<svg width="189" height="19" viewBox="0 0 189 19" fill="none" xmlns="http://www.w3.org/2000/svg">
<path d="M5.016 5.592H0.096V1.2H15.6V5.592H10.68V18H5.016V5.592ZM36.7586 11.424C36.7586 11.504 36.7346 11.928 36.6866 12.696H27.5666C27.7586 13.192 28.0786 13.576 28.5266 13.848C28.9746 14.104 29.5346 14.232 30.2066 14.232C30.7826 14.232 31.2626 14.16 31.6466 14.016C32.0466 13.872 32.4786 13.624 32.9426 13.272L35.7746 16.128C34.4946 17.536 32.5826 18.24 30.0386 18.24C28.4546 18.24 27.0626 17.952 25.8626 17.376C24.6626 16.784 23.7346 15.968 23.0786 14.928C22.4226 13.888 22.0946 12.72 22.0946 11.424C22.0946 10.112 22.4146 8.944 23.0546 7.92C23.7106 6.88 24.5986 6.072 25.7186 5.496C26.8546 4.92 28.1266 4.632 29.5346 4.632C30.8626 4.632 32.0706 4.896 33.1586 5.424C34.2626 5.952 35.1346 6.728 35.7746 7.752C36.4306 8.776 36.7586 10 36.7586 11.424ZM29.5826 8.328C29.0226 8.328 28.5586 8.48 28.1906 8.784C27.8226 9.088 27.5826 9.52 27.4706 10.08H31.6946C31.5826 9.536 31.3426 9.112 30.9746 8.808C30.6066 8.488 30.1426 8.328 29.5826 8.328ZM52.7263 18.24C51.2383 18.24 49.9023 17.952 48.7183 17.376C47.5503 16.8 46.6303 15.992 45.9583 14.952C45.3023 13.912 44.9743 12.736 44.9743 11.424C44.9743 10.112 45.3023 8.944 45.9583 7.92C46.6303 6.88 47.5503 6.072 48.7183 5.496C49.9023 4.92 51.2383 4.632 52.7263 4.632C54.3263 4.632 55.6943 4.976 56.8303 5.664C57.9663 6.352 58.7503 7.304 59.1823 8.52L54.9823 10.584C54.4703 9.432 53.7103 8.856 52.7023 8.856C52.0623 8.856 51.5263 9.08 51.0943 9.528C50.6783 9.976 50.4703 10.608 50.4703 11.424C50.4703 12.256 50.6783 12.896 51.0943 13.344C51.5263 13.792 52.0623 14.016 52.7023 14.016C53.7103 14.016 54.4703 13.44 54.9823 12.288L59.1823 14.352C58.7503 15.568 57.9663 16.52 56.8303 17.208C55.6943 17.896 54.3263 18.24 52.7263 18.24ZM76.7559 4.632C78.3719 4.632 79.6679 5.12 80.6439 6.096C81.6359 7.072 82.1319 8.544 82.1319 10.512V18H76.7079V11.448C76.7079 9.944 76.1719 9.192 75.0999 9.192C74.4919 9.192 73.9959 9.408 73.6119 9.84C73.2439 10.256 73.0599 10.92 73.0599 11.832V18H67.6359V0.191999H73.0599V5.928C74.0679 5.064 75.2999 4.632 76.7559 4.632Z" fill="#222222"/>
<path d="M98.1195 18.384C96.7275 18.384 95.3675 18.232 94.0395 17.928C92.7275 17.608 91.6475 17.184 90.7995 16.656L92.6235 12.528C93.4235 12.992 94.3195 13.368 95.3115 13.656C96.3035 13.928 97.2555 14.064 98.1675 14.064C98.9515 14.064 99.5115 13.992 99.8475 13.848C100.184 13.688 100.352 13.456 100.352 13.152C100.352 12.8 100.128 12.536 99.6795 12.36C99.2475 12.184 98.5275 11.992 97.5195 11.784C96.2235 11.512 95.1435 11.224 94.2795 10.92C93.4155 10.6 92.6635 10.088 92.0235 9.384C91.3835 8.664 91.0635 7.696 91.0635 6.48C91.0635 5.424 91.3595 4.464 91.9515 3.6C92.5435 2.736 93.4235 2.056 94.5915 1.56C95.7755 1.064 97.2075 0.816 98.8875 0.816C100.04 0.816 101.168 0.943999 102.272 1.2C103.392 1.44 104.376 1.8 105.224 2.28L103.52 6.384C101.872 5.552 100.312 5.136 98.8395 5.136C97.3835 5.136 96.6555 5.488 96.6555 6.192C96.6555 6.528 96.8715 6.784 97.3035 6.96C97.7355 7.12 98.4475 7.296 99.4395 7.488C100.72 7.728 101.8 8.008 102.68 8.328C103.56 8.632 104.32 9.136 104.96 9.84C105.616 10.544 105.944 11.504 105.944 12.72C105.944 13.776 105.648 14.736 105.056 15.6C104.464 16.448 103.576 17.128 102.392 17.64C101.224 18.136 99.7995 18.384 98.1195 18.384ZM124.333 17.544C123.517 18.008 122.405 18.24 120.997 18.24C119.157 18.24 117.741 17.8 116.749 16.92C115.757 16.024 115.261 14.688 115.261 12.912V9.552H113.461V5.592H115.261V1.92H120.685V5.592H123.373V9.552H120.685V12.864C120.685 13.264 120.789 13.576 120.997 13.8C121.205 14.024 121.477 14.136 121.813 14.136C122.277 14.136 122.685 14.016 123.037 13.776L124.333 17.544ZM139.484 18.24C138.028 18.24 136.716 17.952 135.548 17.376C134.396 16.784 133.492 15.976 132.836 14.952C132.18 13.912 131.852 12.736 131.852 11.424C131.852 10.112 132.18 8.944 132.836 7.92C133.492 6.88 134.396 6.072 135.548 5.496C136.716 4.92 138.028 4.632 139.484 4.632C140.956 4.632 142.268 4.92 143.42 5.496C144.588 6.072 145.492 6.88 146.132 7.92C146.788 8.944 147.116 10.112 147.116 11.424C147.116 12.736 146.788 13.912 146.132 14.952C145.492 15.976 144.588 16.784 143.42 17.376C142.268 17.952 140.956 18.24 139.484 18.24ZM139.484 14.016C140.108 14.016 140.62 13.792 141.02 13.344C141.42 12.88 141.62 12.24 141.62 11.424C141.62 10.608 141.42 9.976 141.02 9.528C140.62 9.08 140.108 8.856 139.484 8.856C138.86 8.856 138.348 9.08 137.948 9.528C137.548 9.976 137.348 10.608 137.348 11.424C137.348 12.24 137.548 12.88 137.948 13.344C138.348 13.792 138.86 14.016 139.484 14.016ZM161.174 6.288C162.134 5.184 163.55 4.632 165.422 4.632V9.432C164.99 9.368 164.59 9.336 164.222 9.336C162.366 9.336 161.438 10.28 161.438 12.168V18H156.014V4.872H161.174V6.288ZM188.01 11.424C188.01 11.504 187.986 11.928 187.938 12.696H178.818C179.01 13.192 179.33 13.576 179.778 13.848C180.226 14.104 180.786 14.232 181.458 14.232C182.034 14.232 182.514 14.16 182.898 14.016C183.298 13.872 183.73 13.624 184.194 13.272L187.026 16.128C185.746 17.536 183.834 18.24 181.29 18.24C179.706 18.24 178.314 17.952 177.114 17.376C175.914 16.784 174.986 15.968 174.33 14.928C173.674 13.888 173.346 12.72 173.346 11.424C173.346 10.112 173.666 8.944 174.306 7.92C174.962 6.88 175.85 6.072 176.97 5.496C178.106 4.92 179.378 4.632 180.786 4.632C182.114 4.632 183.322 4.896 184.41 5.424C185.514 5.952 186.386 6.728 187.026 7.752C187.682 8.776 188.01 10 188.01 11.424ZM180.834 8.328C180.274 8.328 179.81 8.48 179.442 8.784C179.074 9.088 178.834 9.52 178.722 10.08H182.946C182.834 9.536 182.594 9.112 182.226 8.808C181.858 8.488 181.394 8.328 180.834 8.328Z" fill="#5FB7EA"/>
</svg>
